<svg width="48" height="48" viewBox="0 0 48 48" fill="none" xmlns="http://www.w3.org/2000/svg">
<path d="M29.5351 24L47.5624 42.0273C47.8469 42.3993 47.9781 42.815 47.9781 43.2744C47.9781 43.7338 47.8469 44.1057 47.5624 44.3902L44.3683 47.5843C44.0839 47.8687 43.7119 48 43.2525 48C42.7931 48 42.3774 47.8687 42.0055 47.5843L23.9781 29.557L5.95078 47.5843C5.57885 47.8687 5.16317 48 4.70374 48C4.2443 48 3.87238 47.8687 3.58797 47.5843L0.393801 44.3902C0.131267 44.1057 0 43.7338 0 43.2744C0 42.815 0.131267 42.3993 0.415679 42.0273L18.443 24L0.415679 5.97265C0.131267 5.60073 0 5.18505 0 4.72562C0 4.26618 0.131267 3.89426 0.415679 3.60985L3.60985 0.415679C3.89426 0.131267 4.2443 0 4.72562 0C5.20693 0 5.60073 0.131267 5.97265 0.415679L24 18.443L42.0273 0.415679C42.3993 0.131267 42.815 0 43.2744 0C43.7338 0 44.1057 0.131267 44.3902 0.415679L47.5843 3.60985C47.8687 3.89426 48 4.26618 48 4.72562C48 5.18505 47.8687 5.60073 47.5843 5.97265L29.5351 24Z" fill="black"/>
</svg>
