<svg xmlns="http://www.w3.org/2000/svg" viewBox="0 0 22.29 20.58"><defs><style>.cls-1{fill:#ccc;}</style></defs><title>Asset 8</title><g id="Layer_2" data-name="Layer 2"><g id="global_elements" data-name="global elements"><g id="middle_panel" data-name="middle panel"><g id="print_and_about" data-name="print and about"><path class="cls-1" d="M22.29,16.72a.44.44,0,0,1-.43.43h-3v2.14a1.29,1.29,0,0,1-1.29,1.29H4.72a1.29,1.29,0,0,1-1.29-1.29V17.15h-3A.44.44,0,0,1,0,16.72V11.15A2.59,2.59,0,0,1,2.57,8.57h.86V1.29A1.29,1.29,0,0,1,4.72,0h9a3.55,3.55,0,0,1,2.2.91l2,2a3.55,3.55,0,0,1,.91,2.2V8.57h.86a2.59,2.59,0,0,1,2.57,2.57Zm-5.14-6.43V5.14H15a1.29,1.29,0,0,1-1.29-1.29V1.71H5.14v8.57Zm0,8.57V15.43h-12v3.43Zm2.57-8.57a.86.86,0,1,0,.86.86A.86.86,0,0,0,19.72,10.29Z"/></g></g></g></g></svg>